<svg xmlns="http://www.w3.org/2000/svg" viewBox="0 0 250 150"><defs><style>.cls-1{fill:#ffbf82;}.cls-2{fill:#e6e6e6;}.cls-3{fill:#f2f2f2;}</style></defs><title>Picniic Logo Draft 2</title><g id="Text"><path class="cls-1" d="M3.7,39.21H28.36c12,0,18.69,8.25,18.69,18s-6.76,18-18.69,18H12.48V97.73H3.7Zm23.51,7.72H12.48V67.46H27.21C33.53,67.46,38,63.34,38,57.2S33.53,46.93,27.21,46.93Z"/><path class="cls-1" d="M51.68,43.25a5.15,5.15,0,0,1,5.09-5.09,5.09,5.09,0,0,1,5.09,5.09,5,5,0,0,1-5.09,5A5.07,5.07,0,0,1,51.68,43.25Zm1.23,12.11h7.9V97.73h-7.9Z"/><path class="cls-1" d="M90.3,54.3c8,0,12.81,3.33,15.88,7.46l-5.26,4.83a11.84,11.84,0,0,0-10.27-5.26C82.32,61.32,77,67.73,77,76.5s5.35,15.27,13.69,15.27a12,12,0,0,0,10.27-5.26l5.26,4.83c-3.07,4.12-7.9,7.46-15.88,7.46-12.81,0-21.58-9.56-21.58-22.29S77.49,54.3,90.3,54.3Z"/><path class="cls-1" d="M143.47,70.62c0-7-3.6-9.3-9-9.3a15.14,15.14,0,0,0-11.67,6.14V97.73h-7.9V55.36h7.9v6a20.21,20.21,0,0,1,15-7c9,0,13.6,4.74,13.6,13.69V97.73h-7.9Z"/><path class="cls-1" d="M231.75,54.3c8,0,12.81,3.33,15.88,7.46l-5.26,4.83a11.84,11.84,0,0,0-10.27-5.26c-8.33,0-13.69,6.4-13.69,15.18s5.35,15.27,13.69,15.27a12,12,0,0,0,10.27-5.26l5.26,4.83c-3.07,4.12-7.9,7.46-15.88,7.46-12.81,0-21.58-9.56-21.58-22.29S218.94,54.3,231.75,54.3Z"/></g><g id="Table"><polygon class="cls-2" points="195 72 195 79.6 184.22 79.6 184.22 97.53 179.4 97.53 179.4 79.6 169 79.6 169 72 195 72"/><circle class="cls-1" cx="162.5" cy="43.5" r="5.5"/><polygon class="cls-1" points="167 56 167 81.2 165.28 81.2 165.28 98 158.72 98 158.72 81.2 157 81.2 157 56 167 56"/><path class="cls-1" d="M169.33,72.84a1.86,1.86,0,0,1-1.33-.55l-7.68-7.68,3.36-3.36,7.68,7.68a1.88,1.88,0,0,1,0,2.65l-.71.71A1.86,1.86,0,0,1,169.33,72.84Z"/><path class="cls-3" d="M163.67,61.42l7.6,7.6a1.75,1.75,0,0,1,0,2.47l-.71.71a1.75,1.75,0,0,1-2.47,0l-7.6-7.6,3.18-3.18m0-.35-3.54,3.54,7.77,7.77a2,2,0,0,0,2.83,0l.71-.71a2,2,0,0,0,0-2.83l-7.77-7.77Z"/><circle class="cls-1" cx="201.53" cy="43.5" r="5.5"/><polygon class="cls-1" points="197.03 56 197.03 81.2 198.76 81.2 198.76 98 205.31 98 205.31 81.2 207.03 81.2 207.03 56 197.03 56"/><path class="cls-1" d="M194.71,72.84a1.86,1.86,0,0,1-1.33-.55l-.71-.71a1.87,1.87,0,0,1,0-2.65l7.68-7.68,3.36,3.36L196,72.29A1.86,1.86,0,0,1,194.71,72.84Z"/><path class="cls-3" d="M200.36,61.42l3.18,3.18-7.6,7.6a1.75,1.75,0,0,1-2.47,0l-.71-.71a1.75,1.75,0,0,1,0-2.47l7.6-7.6m0-.35-7.77,7.77a2,2,0,0,0,0,2.83l.71.71a2,2,0,0,0,2.83,0l7.77-7.77-3.54-3.54Z"/></g></svg>